<?xml version="1.0" encoding="utf-8"?>
<!-- Generator: Adobe Illustrator 16.0.0, SVG Export Plug-In . SVG Version: 6.00 Build 0)  -->
<!DOCTYPE svg PUBLIC "-//W3C//DTD SVG 1.1//EN" "http://www.w3.org/Graphics/SVG/1.1/DTD/svg11.dtd">
<svg version="1.1" id="Layer_1" xmlns="http://www.w3.org/2000/svg" xmlns:xlink="http://www.w3.org/1999/xlink" x="0px" y="0px"
	 width="30px" height="30px" viewBox="0 0 30 30" enable-background="new 0 0 30 30" xml:space="preserve">
<rect x="11.457" y="-2.167" transform="matrix(0.7071 0.7071 -0.7071 0.7071 14.9187 -6.1235)" opacity="0.9" width="6.79" height="34.229"/>
<g>
	<defs>
		<rect id="SVGID_1_" x="-398" y="45.242" width="814" height="6.758"/>
	</defs>
	<clipPath id="SVGID_2_">
		<use xlink:href="#SVGID_1_"  overflow="visible"/>
	</clipPath>
	<g clip-path="url(#SVGID_2_)">
		<defs>
			<rect id="SVGID_3_" x="-398" y="45.242" width="814" height="6.758"/>
		</defs>
		<clipPath id="SVGID_4_">
			<use xlink:href="#SVGID_3_"  overflow="visible"/>
		</clipPath>
		<g opacity="0.6" clip-path="url(#SVGID_4_)">
			<g>
				<defs>
					<rect id="SVGID_5_" x="-436.736" y="10.885" width="891.472" height="68.471"/>
				</defs>
				<clipPath id="SVGID_6_">
					<use xlink:href="#SVGID_5_"  overflow="visible"/>
				</clipPath>
				<path clip-path="url(#SVGID_6_)" fill="none" stroke="#231F20" stroke-width="1.264" d="M415.554,45.688l-5.865,5.864
					 M412.161,45.688l-5.864,5.864 M408.77,45.688l-5.864,5.864 M405.378,45.688l-5.864,5.864 M401.986,45.688l-5.865,5.864
					 M398.595,45.688l-5.864,5.864 M395.202,45.688l-5.864,5.864 M391.812,45.688l-5.865,5.864 M388.419,45.688l-5.864,5.864
					 M385.027,45.688l-5.864,5.864 M381.635,45.688l-5.863,5.864 M378.243,45.688l-5.864,5.864 M374.853,45.688l-5.865,5.864
					 M371.46,45.688l-5.864,5.864 M368.068,45.688l-5.864,5.864 M364.676,45.688l-5.863,5.864 M361.285,45.688l-5.865,5.864
					 M357.894,45.688l-5.865,5.864 M354.501,45.688l-5.863,5.864 M351.109,45.688l-5.864,5.864 M347.717,45.688l-5.863,5.864
					 M344.326,45.688l-5.865,5.864 M340.935,45.688l-5.865,5.864 M337.542,45.688l-5.863,5.864 M334.15,45.688l-5.864,5.864
					 M330.76,45.688l-5.865,5.864 M327.367,45.688l-5.865,5.864 M323.976,45.688l-5.864,5.864 M320.583,45.688l-5.863,5.864
					 M317.191,45.688l-5.864,5.864 M313.801,45.688l-5.865,5.864 M310.408,45.688l-5.865,5.864 M307.017,45.688l-5.864,5.864
					 M303.624,45.688l-5.864,5.864 M300.233,45.688l-5.865,5.864 M296.842,45.688l-5.865,5.864 M293.449,45.688l-5.864,5.864
					 M290.058,45.688l-5.864,5.864 M286.666,45.688l-5.865,5.864 M283.274,45.688l-5.865,5.864 M279.882,45.688l-5.863,5.864
					 M276.49,45.688l-5.864,5.864 M273.099,45.688l-5.864,5.864 M269.707,45.688l-5.865,5.864 M266.315,45.688l-5.865,5.864
					 M262.923,45.688l-5.863,5.864 M259.531,45.688l-5.864,5.864 M256.141,45.688l-5.865,5.864 M252.748,45.688l-5.865,5.864
					 M249.356,45.688l-5.864,5.864 M245.964,45.688l-5.863,5.864 M242.572,45.688l-5.864,5.864 M239.182,45.688l-5.865,5.864
					 M235.789,45.688l-5.865,5.864 M232.397,45.688l-5.864,5.864 M229.005,45.688l-5.863,5.864 M225.614,45.688l-5.865,5.864
					 M222.223,45.688l-5.865,5.864 M218.83,45.688l-5.863,5.864 M215.438,45.688l-5.864,5.864 M212.047,45.688l-5.864,5.864
					 M208.655,45.688l-5.865,5.864 M205.264,45.688l-5.864,5.864 M201.871,45.688l-5.864,5.864 M198.479,45.688l-5.864,5.864
					 M195.088,45.688l-5.864,5.864 M191.696,45.688l-5.865,5.864 M188.305,45.688l-5.864,5.864 M184.912,45.688l-5.864,5.864
					 M181.521,45.688l-5.865,5.864 M178.129,45.688l-5.864,5.864 M174.737,45.688l-5.864,5.864 M171.346,45.688l-5.864,5.864
					 M167.954,45.688l-5.865,5.864 M164.562,45.688l-5.865,5.864 M161.17,45.688l-5.864,5.864 M157.778,45.688l-5.864,5.864
					 M154.387,45.688l-5.864,5.864 M150.995,45.688l-5.865,5.864 M147.604,45.688l-5.865,5.864 M144.211,45.688l-5.863,5.864
					 M140.819,45.688l-5.864,5.864 M137.429,45.688l-5.865,5.864 M134.036,45.688l-5.865,5.864 M130.645,45.688l-5.864,5.864
					 M127.252,45.688l-5.863,5.864 M123.86,45.688l-5.864,5.864 M120.47,45.688l-5.865,5.864 M117.077,45.688l-5.865,5.864
					 M113.686,45.688l-5.864,5.864 M110.293,45.688l-5.863,5.864 M106.902,45.688l-5.865,5.864 M103.511,45.688l-5.865,5.864
					 M100.118,45.688l-5.864,5.864 M96.727,45.688l-5.864,5.864 M93.334,45.688l-5.863,5.864 M89.943,45.688l-5.865,5.864
					 M86.551,45.688l-5.864,5.864 M83.159,45.688l-5.864,5.864 M79.768,45.688l-5.864,5.864 M76.376,45.688l-5.864,5.864
					 M72.984,45.688l-5.865,5.864 M69.592,45.688l-5.863,5.864 M66.2,45.688l-5.864,5.864 M62.81,45.688l-5.865,5.864
					 M59.417,45.688l-5.864,5.864 M56.025,45.688l-5.864,5.864 M52.633,45.688l-5.863,5.864 M49.241,45.688l-5.864,5.864
					 M45.851,45.688l-5.865,5.864 M42.458,45.688l-5.864,5.864 M39.066,45.688l-5.864,5.864 M35.674,45.688l-5.863,5.864
					 M32.283,45.688l-5.865,5.864 M28.892,45.688l-5.865,5.864 M25.499,45.688l-5.863,5.864 M22.107,45.688l-5.864,5.864
					 M18.715,45.688l-5.863,5.864 M15.324,45.688l-5.865,5.864 M11.933,45.688l-5.865,5.864 M8.54,45.688l-5.864,5.864
					 M5.148,45.688l-5.864,5.864 M1.757,45.688l-5.864,5.864 M-1.635,45.688L-7.5,51.553 M-5.026,45.688l-5.864,5.864
					 M-8.419,45.688l-5.864,5.864 M-11.81,45.688l-5.865,5.864 M-15.202,45.688l-5.864,5.864 M-18.594,45.688l-5.864,5.864
					 M-21.985,45.688l-5.864,5.864 M-25.378,45.688l-5.864,5.864 M-28.769,45.688l-5.865,5.864 M-32.161,45.688l-5.864,5.864
					 M-35.553,45.688l-5.864,5.864 M-38.944,45.688l-5.864,5.864 M-42.336,45.688l-5.865,5.864 M-45.728,45.688l-5.865,5.864
					 M-49.12,45.688l-5.863,5.864 M-52.512,45.688l-5.864,5.864 M-55.902,45.688l-5.865,5.864 M-59.295,45.688l-5.865,5.864
					 M-62.687,45.688l-5.864,5.864 M-66.079,45.688l-5.863,5.864 M-69.471,45.688l-5.864,5.864 M-72.861,45.688l-5.865,5.864
					 M-76.254,45.688l-5.865,5.864 M-79.646,45.688l-5.864,5.864 M-83.038,45.688l-5.863,5.864 M-86.429,45.688l-5.865,5.864
					 M-89.82,45.688l-5.865,5.864 M-93.213,45.688l-5.864,5.864 M-96.604,45.688l-5.864,5.864 M-99.997,45.688l-5.863,5.864
					 M-103.388,45.688l-5.865,5.864 M-106.779,45.688l-5.865,5.864 M-110.172,45.688l-5.864,5.864 M-113.563,45.688l-5.864,5.864
					 M-116.955,45.688l-5.864,5.864 M-120.347,45.688l-5.865,5.864 M-123.738,45.688l-5.864,5.864 M-127.131,45.688l-5.864,5.864
					 M-130.521,45.688l-5.865,5.864 M-133.914,45.688l-5.864,5.864 M-137.306,45.688l-5.865,5.864 M-140.697,45.688l-5.864,5.864
					 M-144.09,45.688l-5.864,5.864 M-147.48,45.688l-5.865,5.864 M-150.873,45.688l-5.864,5.864 M-154.265,45.688l-5.864,5.864
					 M-157.656,45.688l-5.864,5.864 M-161.048,45.688l-5.865,5.864 M-164.439,45.688l-5.865,5.864 M-167.832,45.688l-5.863,5.864
					 M-171.224,45.688l-5.864,5.864 M-174.615,45.688l-5.864,5.864 M-178.007,45.688l-5.865,5.864 M-181.398,45.688l-5.865,5.864
					 M-184.791,45.688l-5.863,5.864 M-188.183,45.688l-5.864,5.864 M-191.573,45.688l-5.865,5.864 M-194.966,45.688l-5.865,5.864
					 M-198.357,45.688l-5.864,5.864 M-201.75,45.688l-5.863,5.864 M-205.141,45.688l-5.865,5.864 M-208.532,45.688l-5.865,5.864
					 M-211.925,45.688l-5.865,5.864 M-215.316,45.688l-5.864,5.864 M-218.709,45.688l-5.863,5.864 M-222.1,45.688l-5.865,5.864
					 M-225.492,45.688l-5.864,5.864 M-228.884,45.688l-5.864,5.864 M-232.275,45.688l-5.864,5.864 M-235.667,45.688l-5.864,5.864
					 M-239.059,45.688l-5.865,5.864 M-242.451,45.688l-5.863,5.864 M-245.843,45.688l-5.864,5.864 M-249.234,45.688l-5.864,5.864
					 M-252.626,45.688l-5.864,5.864 M-256.018,45.688l-5.865,5.864 M-259.41,45.688l-5.863,5.864 M-262.802,45.688l-5.864,5.864
					 M-266.192,45.688l-5.865,5.864 M-269.585,45.688l-5.864,5.864 M-272.977,45.688l-5.864,5.864 M-276.369,45.688l-5.863,5.864
					 M-279.76,45.688l-5.865,5.864 M-283.151,45.688l-5.865,5.864 M-286.544,45.688l-5.865,5.864 M-289.936,45.688l-5.864,5.864
					 M-293.328,45.688l-5.863,5.864 M-296.719,45.688l-5.865,5.864 M-300.11,45.688l-5.865,5.864 M-303.503,45.688l-5.864,5.864
					 M-306.895,45.688l-5.864,5.864 M-310.286,45.688l-5.864,5.864 M-313.678,45.688l-5.865,5.864 M-317.069,45.688l-5.864,5.864
					 M-320.462,45.688l-5.864,5.864 M-323.854,45.688l-5.864,5.864 M-327.245,45.688l-5.864,5.864 M-330.637,45.688l-5.865,5.864
					 M-334.028,45.688l-5.864,5.864 M-337.421,45.688l-5.864,5.864 M-340.812,45.688l-5.865,5.864 M-344.204,45.688l-5.864,5.864
					 M-347.596,45.688l-5.864,5.864 M-350.987,45.688l-5.864,5.864 M-354.379,45.688l-5.865,5.864 M-357.771,45.688l-5.865,5.864
					 M-361.163,45.688l-5.864,5.864 M-364.555,45.688l-5.864,5.864 M-367.946,45.688l-5.864,5.864 M-371.338,45.688l-5.865,5.864
					 M-374.729,45.688l-5.865,5.864 M-378.122,45.688l-5.864,5.864 M-381.514,45.688l-5.864,5.864 M-384.905,45.688l-5.865,5.864
					 M-388.297,45.688l-5.865,5.864 M-391.688,45.688l-5.864,5.864"/>
			</g>
		</g>
	</g>
</g>
</svg>
